<?xml version="1.0" encoding="utf-8"?>
<!-- Generator: Adobe Illustrator 25.1.0, SVG Export Plug-In . SVG Version: 6.00 Build 0)  -->
<svg version="1.1" id="Layer_1" xmlns="http://www.w3.org/2000/svg" xmlns:xlink="http://www.w3.org/1999/xlink" x="0px" y="0px"
	 viewBox="0 0 24 24" style="enable-background:new 0 0 24 24;" xml:space="preserve">
<style type="text/css">
	.st0{fill:#E0E1E0;}
</style>
<path class="st0" d="M8.8,10.8h-2V9h1.8C10.5,9,10.3,10.8,8.8,10.8z M14.6,11.9h2.6C17.1,10.2,14.9,10.1,14.6,11.9z M8.7,12.3H6.9
	v1.9h1.8C10.5,14.2,10.4,12.3,8.7,12.3z M24,12c0,6.6-5.4,12-12,12S0,18.6,0,12S5.4,0,12,0S24,5.4,24,12z M10.6,11.3
	c1.7-0.9,1.6-4-1.6-4H5V16h3.8C12.7,16,12.7,12,10.6,11.3z M14,8.1h4V7.2h-4V8.1z M18.9,11.8c-0.5-3.5-6.1-3.7-6.1,0.9
	c0,4.5,5.2,3.8,5.9,1.6H17c-0.6,0.7-2.5,0.5-2.4-1.2H19C19,12.5,19,12.1,18.9,11.8z"/>
</svg>
