<svg xmlns="http://www.w3.org/2000/svg" viewBox="0 0 149.07 25.38"><defs><style>.cls-1{fill:#2d2d2d;}.cls-2{fill:#231f20;}</style></defs><g id="Layer_2" data-name="Layer 2"><g id="Layer_1-2" data-name="Layer 1"><path class="cls-1" d="M1.36,14.54V2.47H3.25V12.85H9.74v1.69Z" transform="translate(-1.36 -2.38)"/><path class="cls-1" d="M11.82,14.54V2.47H13.7V14.54Z" transform="translate(-1.36 -2.38)"/><path class="cls-1" d="M17,14.54V2.47h1.88V12.85h6.5v1.69Z" transform="translate(-1.36 -2.38)"/><path class="cls-1" d="M26.49,2.47l3.34,6,3.39-6h2.07l-4.52,7.75v4.32H28.88V10.18L24.41,2.47Z" transform="translate(-1.36 -2.38)"/><path class="cls-1" d="M40.66,8.4a6.25,6.25,0,0,1,.39-2.17,6,6,0,0,1,1.14-1.94A5.49,5.49,0,0,1,44,2.9a5.56,5.56,0,0,1,2.46-.52,5.26,5.26,0,0,1,2.83.74A4.65,4.65,0,0,1,51.07,5L49.59,6a3,3,0,0,0-2-1.77,4.62,4.62,0,0,0-1.19-.17,3.69,3.69,0,0,0-1.66.37,3.61,3.61,0,0,0-1.21,1,4.66,4.66,0,0,0-.73,1.42,5.31,5.31,0,0,0-.24,1.58,4.87,4.87,0,0,0,.29,1.68,4.63,4.63,0,0,0,.81,1.44,3.87,3.87,0,0,0,1.24,1,3.43,3.43,0,0,0,1.55.36,3.79,3.79,0,0,0,2.38-.86,3.1,3.1,0,0,0,.87-1.15l1.56.9a3.62,3.62,0,0,1-1.15,1.54,6.23,6.23,0,0,1-1.78,1,6.32,6.32,0,0,1-2,.32,4.93,4.93,0,0,1-2.3-.54,6,6,0,0,1-1.82-1.42,6.6,6.6,0,0,1-1.19-2A6.31,6.31,0,0,1,40.66,8.4Z" transform="translate(-1.36 -2.38)"/><path class="cls-1" d="M63.48,2.47V14.54H61.59V9.21H55.45v5.33H53.57V2.47h1.88v5h6.14v-5Z" transform="translate(-1.36 -2.38)"/><path class="cls-1" d="M70.23,2.47H72l4.71,12.07h-2l-1.18-3.3H68.68l-1.19,3.3h-2ZM73,9.84l-1.91-5.3-1.92,5.3Z" transform="translate(-1.36 -2.38)"/><path class="cls-1" d="M88.89,14.54V5.9l-3.57,6.56h-1.1L80.61,5.9v8.64H78.73V2.47h2l4,7.39,4-7.39h2V14.54Z" transform="translate(-1.36 -2.38)"/><path class="cls-1" d="M94,14.54V2.47h5.07a3.3,3.3,0,0,1,1.5.34,3.86,3.86,0,0,1,1.19.9,4,4,0,0,1,1,2.68,4.22,4.22,0,0,1-.45,1.91,3.8,3.8,0,0,1-1.27,1.48,3.32,3.32,0,0,1-1.92.56H95.93v4.2Zm1.89-5.89h3.18a1.51,1.51,0,0,0,.93-.29,1.89,1.89,0,0,0,.65-.81,2.77,2.77,0,0,0,.24-1.16,2.53,2.53,0,0,0-.27-1.18,2,2,0,0,0-.71-.79,1.78,1.78,0,0,0-1-.27H95.93Z" transform="translate(-1.36 -2.38)"/><path class="cls-1" d="M107.8,2.47h1.78l4.71,12.07h-2l-1.18-3.3h-4.85l-1.19,3.3h-2Zm2.79,7.37-1.91-5.3-1.92,5.3Z" transform="translate(-1.36 -2.38)"/><path class="cls-1" d="M120.77,14.62a5.09,5.09,0,0,1-2.23-.49,5.84,5.84,0,0,1-1.81-1.35,6.44,6.44,0,0,1-1.64-4.33,6.24,6.24,0,0,1,1.64-4.26,5.86,5.86,0,0,1,1.82-1.33,5.37,5.37,0,0,1,2.27-.48,5.51,5.51,0,0,1,2.91.72A4.58,4.58,0,0,1,125.49,5l-1.42,1a3.5,3.5,0,0,0-1.38-1.47,3.86,3.86,0,0,0-1.91-.5,3.38,3.38,0,0,0-1.56.36,3.62,3.62,0,0,0-1.19,1,4.85,4.85,0,0,0-.76,1.42A5.39,5.39,0,0,0,117,8.5a5.13,5.13,0,0,0,.29,1.72,4.34,4.34,0,0,0,.82,1.4,4,4,0,0,0,1.25,1,3.41,3.41,0,0,0,1.53.35,3.82,3.82,0,0,0,1.89-.5,6,6,0,0,0,1.68-1.51v1.91A4.79,4.79,0,0,1,120.77,14.62Zm3.52-4.78h-2.52V8.43h4.1v6.11h-1.58Z" transform="translate(-1.36 -2.38)"/><path class="cls-1" d="M130.47,6v8.56h-1.88V2.47h1.54L137,11.22V2.48h1.89V14.54h-1.63Z" transform="translate(-1.36 -2.38)"/><path class="cls-1" d="M150.43,12.85v1.69h-8.28V2.47h8.13V4.15H144V7.6h5.41V9.16H144v3.69Z" transform="translate(-1.36 -2.38)"/><path class="cls-2" d="M21.44,27.76a2.63,2.63,0,0,1-1.19-.27,3.2,3.2,0,0,1-1-.75,3.54,3.54,0,0,1-.62-1,3.26,3.26,0,0,1-.22-1.19,3.34,3.34,0,0,1,.22-1.22,3.43,3.43,0,0,1,.61-1,2.85,2.85,0,0,1,.94-.72,2.64,2.64,0,0,1,1.17-.26,2.72,2.72,0,0,1,1.54.39,2.41,2.41,0,0,1,.9,1l-.42.28a2,2,0,0,0-.84-.9,2.61,2.61,0,0,0-1.19-.28,2.19,2.19,0,0,0-1,.23,2.49,2.49,0,0,0-.75.62,3,3,0,0,0-.49.89,3.1,3.1,0,0,0-.16,1,3,3,0,0,0,.72,1.93,2.55,2.55,0,0,0,.79.6,2.33,2.33,0,0,0,1,.21A2.27,2.27,0,0,0,22.61,27a3.4,3.4,0,0,0,1-.93v.59A2.78,2.78,0,0,1,21.44,27.76ZM23.54,25H22.11v-.42H24v3.12h-.47Z" transform="translate(-1.36 -2.38)"/><path class="cls-2" d="M27.22,27.71V21.33H29.9a1.59,1.59,0,0,1,.75.17,1.79,1.79,0,0,1,.6.46,2.44,2.44,0,0,1,.39.64,2,2,0,0,1,.14.72,2.13,2.13,0,0,1-.19.87,1.94,1.94,0,0,1-.51.69,1.57,1.57,0,0,1-.77.36l1.58,2.47h-.62l-1.52-2.38h-2v2.38Zm.54-2.87h2.17a1.13,1.13,0,0,0,.69-.21,1.4,1.4,0,0,0,.45-.57,1.71,1.71,0,0,0,.17-.74,1.54,1.54,0,0,0-.19-.74,1.57,1.57,0,0,0-.49-.56,1.21,1.21,0,0,0-.68-.21H27.76Z" transform="translate(-1.36 -2.38)"/><path class="cls-2" d="M36.92,21.33h.46l2.69,6.38h-.58l-.84-2.05h-3l-.84,2.05h-.58Zm1.56,3.9L37.15,22l-1.33,3.26Z" transform="translate(-1.36 -2.38)"/><path class="cls-2" d="M42.9,27.71V21.33h2.64a1.56,1.56,0,0,1,.75.17,1.66,1.66,0,0,1,.59.46,2,2,0,0,1,.39.64,1.82,1.82,0,0,1,.15.72,2.13,2.13,0,0,1-.23,1,2,2,0,0,1-.64.75,1.63,1.63,0,0,1-1,.29H43.44v2.38Zm.54-2.87h2.13a1.13,1.13,0,0,0,.69-.21,1.4,1.4,0,0,0,.45-.57,1.7,1.7,0,0,0,.16-.74,1.53,1.53,0,0,0-.19-.76,1.45,1.45,0,0,0-.49-.55,1.23,1.23,0,0,0-.68-.2H43.44Z" transform="translate(-1.36 -2.38)"/><path class="cls-2" d="M55.38,21.33v6.38h-.55v-3H50.92v3h-.54V21.33h.54v2.88h3.91V21.33Z" transform="translate(-1.36 -2.38)"/><path class="cls-2" d="M58.9,27.71V21.33h.54v6.38Z" transform="translate(-1.36 -2.38)"/><path class="cls-2" d="M62.54,24.47a3.48,3.48,0,0,1,.2-1.15,3.41,3.41,0,0,1,.59-1,3,3,0,0,1,1-.74,3,3,0,0,1,1.29-.27,2.63,2.63,0,0,1,1.46.39,2.44,2.44,0,0,1,.89,1l-.43.27a2,2,0,0,0-.54-.69,2.1,2.1,0,0,0-.69-.37,2.57,2.57,0,0,0-.72-.11,2.27,2.27,0,0,0-1.06.24,2.48,2.48,0,0,0-.77.63,3.1,3.1,0,0,0-.47.88,3,3,0,0,0-.16,1,2.82,2.82,0,0,0,.19,1,2.93,2.93,0,0,0,.52.89,2.58,2.58,0,0,0,.79.61,2.17,2.17,0,0,0,1,.22,2.56,2.56,0,0,0,.76-.12,2.37,2.37,0,0,0,.73-.4,2,2,0,0,0,.55-.69l.46.22a2.07,2.07,0,0,1-.63.81,2.92,2.92,0,0,1-.91.51,3.22,3.22,0,0,1-1,.17,2.6,2.6,0,0,1-1.21-.28,3,3,0,0,1-.95-.76,3.45,3.45,0,0,1-.83-2.25Z" transform="translate(-1.36 -2.38)"/><path class="cls-2" d="M75.25,27.71V21.33h2.14a3.14,3.14,0,0,1,1.69.42,2.63,2.63,0,0,1,1,1.15,4,4,0,0,1,0,3.3A2.79,2.79,0,0,1,79,27.32a3.24,3.24,0,0,1-1.62.39Zm4.65-3.2a3.23,3.23,0,0,0-.29-1.39,2.27,2.27,0,0,0-.85-1,2.58,2.58,0,0,0-1.37-.35h-1.6v5.42h1.6a2.47,2.47,0,0,0,1.37-.36,2.25,2.25,0,0,0,.85-1A3.25,3.25,0,0,0,79.9,24.51Z" transform="translate(-1.36 -2.38)"/><path class="cls-2" d="M87.84,27.23v.48H83.56V21.33h4.2v.48H84.1v2.41h3.19v.46H84.1v2.55Z" transform="translate(-1.36 -2.38)"/><path class="cls-2" d="M94.61,22.45a1.78,1.78,0,0,0-.32-.29,2.63,2.63,0,0,0-.41-.21,2.33,2.33,0,0,0-.47-.14,3.12,3.12,0,0,0-.54,0,2.1,2.1,0,0,0-1.31.33,1.14,1.14,0,0,0-.41.91.89.89,0,0,0,.19.62,1.26,1.26,0,0,0,.6.37,9.82,9.82,0,0,0,1,.28,7.88,7.88,0,0,1,1.19.34,1.77,1.77,0,0,1,.77.53,1.38,1.38,0,0,1,.27.9,1.6,1.6,0,0,1-.17.75,1.52,1.52,0,0,1-.47.54,2.16,2.16,0,0,1-.72.32,3.84,3.84,0,0,1-.93.1,4.19,4.19,0,0,1-1-.1,3.91,3.91,0,0,1-.85-.31,3.52,3.52,0,0,1-.75-.53l.28-.44a2.56,2.56,0,0,0,.43.36,3,3,0,0,0,.53.29,4.19,4.19,0,0,0,.63.19,3.85,3.85,0,0,0,.69.06A2.4,2.4,0,0,0,94.19,27a1,1,0,0,0,.45-.87,1,1,0,0,0-.21-.67,1.61,1.61,0,0,0-.66-.4,9.09,9.09,0,0,0-1.1-.31,8.26,8.26,0,0,1-1.13-.33,1.6,1.6,0,0,1-.71-.49,1.37,1.37,0,0,1-.23-.82,1.63,1.63,0,0,1,1.09-1.61,3.07,3.07,0,0,1,1.18-.21,3.21,3.21,0,0,1,.78.09,2.61,2.61,0,0,1,.66.24,2.79,2.79,0,0,1,.57.42Z" transform="translate(-1.36 -2.38)"/><path class="cls-2" d="M98.23,27.71V21.33h.54v6.38Z" transform="translate(-1.36 -2.38)"/><path class="cls-2" d="M104.86,27.76a2.63,2.63,0,0,1-1.19-.27,3.2,3.2,0,0,1-1-.75,3.54,3.54,0,0,1-.62-1,3.26,3.26,0,0,1-.22-1.19,3.34,3.34,0,0,1,.22-1.22,3.43,3.43,0,0,1,.61-1,2.85,2.85,0,0,1,.94-.72,2.64,2.64,0,0,1,1.17-.26,2.72,2.72,0,0,1,1.54.39,2.41,2.41,0,0,1,.9,1l-.42.28a2,2,0,0,0-.84-.9,2.61,2.61,0,0,0-1.19-.28,2.19,2.19,0,0,0-1,.23,2.49,2.49,0,0,0-.75.62,3,3,0,0,0-.49.89,3.1,3.1,0,0,0-.16,1,3,3,0,0,0,.72,1.93,2.55,2.55,0,0,0,.79.6,2.33,2.33,0,0,0,1,.21A2.27,2.27,0,0,0,106,27a3.4,3.4,0,0,0,1-.93v.59A2.78,2.78,0,0,1,104.86,27.76ZM107,25h-1.43v-.42h1.9v3.12H107Z" transform="translate(-1.36 -2.38)"/><path class="cls-2" d="M111.18,22.32v5.39h-.54V21.33h.45l4.33,5.48V21.33H116v6.38h-.51Z" transform="translate(-1.36 -2.38)"/><path class="cls-2" d="M123.76,27.23v.48h-4.27V21.33h4.19v.48H120v2.41h3.19v.46H120v2.55Z" transform="translate(-1.36 -2.38)"/><path class="cls-2" d="M126.87,27.71V21.33h2.68a1.59,1.59,0,0,1,.75.17,1.75,1.75,0,0,1,.59.46,2,2,0,0,1,.39.64,1.81,1.81,0,0,1,.14.72,2.12,2.12,0,0,1-.18.87,1.94,1.94,0,0,1-.51.69,1.57,1.57,0,0,1-.77.36l1.58,2.47h-.62l-1.52-2.38h-2v2.38Zm.54-2.87h2.17a1.13,1.13,0,0,0,.69-.21,1.59,1.59,0,0,0,.45-.57,1.7,1.7,0,0,0,.16-.74,1.53,1.53,0,0,0-.18-.74,1.5,1.5,0,0,0-.5-.56,1.16,1.16,0,0,0-.68-.21h-2.11Z" transform="translate(-1.36 -2.38)"/></g></g></svg>